<svg width="192" height="192" viewBox="0 0 192 192" fill="none" xmlns="http://www.w3.org/2000/svg">
  <rect width="192" height="192" rx="32" fill="#10b981"/>
  <path d="M96 48C96 48 120 72 120 108C120 124.569 108.569 136 96 136C83.4315 136 72 124.569 72 108C72 72 96 48 96 48Z" fill="white"/>
  <path d="M96 128C96 132.418 99.5817 136 104 136H120C124.418 136 128 132.418 128 128V120C128 115.582 124.418 112 120 112H104C99.5817 112 96 115.582 96 120V128Z" fill="white"/>
  <circle cx="80" cy="144" r="8" fill="white"/>
  <circle cx="112" cy="144" r="8" fill="white"/>
</svg>